<svg version="1.0" xmlns="http://www.w3.org/2000/svg"
 width="1181.000000pt" height="1181.000000pt" viewBox="0 0 1181.000000 1181.000000"
 preserveAspectRatio="xMidYMid meet">

<g transform="translate(0.000000,1181.000000) scale(0.100000,-0.100000)"
fill="#000000" stroke="none">
<path d="M2478 8234 c-5 -4 -8 -72 -8 -151 0 -108 3 -143 13 -143 31 0 442
-33 446 -36 11 -10 -174 -281 -334 -488 -58 -76 -105 -141 -105 -146 0 -10
138 -137 197 -180 l42 -31 79 78 c43 43 106 109 139 148 l60 69 31 -24 c17
-14 85 -74 152 -133 141 -126 112 -128 242 16 l80 87 -38 48 c-22 26 -90 99
-151 163 -62 64 -113 118 -113 121 0 3 34 63 75 134 l75 129 -2 150 -3 150
-40 7 c-36 6 -204 14 -680 34 -82 3 -153 2 -157 -2z"/>
<path d="M3656 8210 c-3 -18 -6 -85 -6 -150 l0 -117 68 -6 c37 -3 140 -11 230
-18 103 -8 162 -16 162 -23 0 -18 -173 -269 -298 -434 -65 -84 -123 -162 -131
-173 -12 -17 -11 -23 10 -45 21 -23 154 -137 200 -172 14 -11 25 -5 73 38 30
29 92 94 137 146 45 52 87 94 94 94 6 0 20 -10 31 -21 10 -12 75 -71 143 -131
l124 -109 39 38 c22 21 67 68 100 106 l60 67 -28 38 c-16 20 -84 94 -152 164
l-124 127 76 132 77 131 -3 151 -3 152 -40 7 c-36 6 -194 14 -681 34 l-151 6
-7 -32z"/>
<path d="M4932 8171 c-6 -15 5 -674 15 -882 l6 -137 37 -6 c20 -3 89 -9 152
-12 l115 -7 6 114 c4 63 7 143 7 178 l0 64 80 -5 c44 -3 82 -7 85 -10 3 -2 8
-79 12 -170 l6 -166 36 -6 c20 -3 88 -6 152 -6 l116 0 7 38 c3 20 6 254 6 520
0 450 -1 483 -17 490 -10 4 -83 7 -163 7 l-145 0 -5 -185 c-4 -139 -8 -185
-17 -184 -7 1 -47 2 -88 3 l-75 1 0 98 c0 53 -3 134 -7 179 l-6 83 -31 5 c-17
2 -87 6 -155 7 -97 2 -125 0 -129 -11z"/>
<path d="M8553 7660 c4 -288 9 -526 12 -528 3 -3 83 -6 178 -6 l172 -1 3 173
2 172 159 0 158 0 6 73 c3 39 2 113 -1 162 l-7 90 -65 6 c-36 4 -108 7 -161 8
l-97 1 -4 174 c-2 96 -6 177 -9 180 -3 3 -83 9 -179 12 l-173 7 6 -523z"/>
<path d="M6094 8156 c-7 -18 3 -235 12 -273 3 -12 13 -24 22 -28 13 -5 332
-21 474 -25 15 0 17 -30 20 -339 2 -187 6 -342 9 -346 4 -3 79 -9 167 -12 151
-6 160 -5 165 13 11 37 20 611 12 805 l-7 196 -182 6 c-99 4 -295 10 -433 13
-234 6 -253 6 -259 -10z"/>
<path d="M7274 8146 c-7 -29 10 -273 20 -284 11 -11 116 -20 237 -21 64 -1
150 -4 191 -7 l76 -7 4 -338 c2 -186 7 -341 10 -344 3 -4 80 -9 170 -12 l165
-6 6 183 c9 233 9 630 1 747 l-7 90 -181 7 c-100 3 -294 9 -433 12 l-252 7 -7
-27z"/>
<path d="M8457 6954 c-7 -43 10 -265 21 -276 11 -11 242 -27 388 -28 l111 0 6
-341 c3 -188 9 -344 12 -348 4 -3 80 -8 170 -9 l163 -4 7 194 c8 235 3 803 -8
814 -7 8 -219 17 -653 28 l-212 5 -5 -35z"/>
<path d="M3915 5769 c-8 -52 8 -995 16 -1004 4 -3 83 -9 176 -12 l170 -6 6
108 c4 59 7 139 7 177 l0 68 760 0 760 0 6 27 c7 27 -2 292 -10 300 -2 2 -312
7 -688 9 -375 3 -720 7 -765 10 l-83 6 0 168 c0 104 -4 171 -10 175 -6 4 -84
9 -174 12 l-164 6 -7 -44z"/>
<path d="M7686 5794 c-3 -8 -6 -88 -6 -176 l0 -160 -142 4 -143 3 0 -162 c0
-89 4 -165 8 -169 4 -5 68 -10 141 -12 l133 -4 6 -170 c3 -94 9 -173 12 -176
8 -9 310 -26 329 -19 15 6 16 50 14 529 l-3 523 -171 3 c-150 2 -172 0 -178
-14z"/>
<path d="M2870 5744 c-81 -22 -152 -59 -210 -111 -98 -88 -140 -187 -140 -331
0 -156 39 -251 146 -354 154 -149 417 -184 586 -77 57 37 130 113 156 165 77
150 69 360 -18 497 -109 173 -329 262 -520 211z m189 -304 c56 -28 85 -91 79
-172 -4 -54 -8 -64 -40 -93 -87 -80 -238 -37 -269 78 -37 139 102 253 230 187z"/>
<path d="M6416 5744 c-253 -61 -394 -285 -345 -550 32 -173 175 -320 360 -369
69 -19 189 -19 257 -1 246 66 382 350 292 612 -56 161 -184 273 -355 309 -85
18 -132 18 -209 -1z m184 -302 c112 -56 117 -243 8 -292 -56 -26 -94 -25 -148
3 -61 30 -90 76 -90 142 0 122 123 201 230 147z"/>
<path d="M3823 4469 c4 -101 10 -155 18 -160 15 -9 116 -17 330 -25 l166 -6 7
-60 c3 -34 6 -188 6 -343 l0 -282 68 -6 c37 -4 113 -7 169 -7 l101 0 7 83 c3
45 5 273 3 507 l-3 425 -150 6 c-82 4 -280 10 -439 14 l-289 7 6 -153z"/>
</g>
</svg>
