<svg width="131" height="132" viewBox="0 0 131 132" fill="none" xmlns="http://www.w3.org/2000/svg">
<path fill-rule="evenodd" clip-rule="evenodd" d="M85.4649 2.81753C85.4649 2.81753 89.751 3.79171 92.0818 7.16937C94.4072 10.5439 94.8749 19.9831 94.8749 19.9831C94.8749 19.9831 100.622 20.8263 102.337 10.6141C104.42 -1.783 101.033 -0.2692 99.6982 0.499579C97.8324 1.5746 90.9636 2.18076 87.3572 1.39772C84.6844 0.815328 84.6499 2.76262 85.4649 2.81753Z" fill="#5AA269"/>
<path fill-rule="evenodd" clip-rule="evenodd" d="M102.99 91C102.99 91 109.002 89.0578 107.852 84.1841C106.703 79.3088 99.998 81.4834 99.998 81.4834" fill="#BB8BBE"/>
<path fill-rule="evenodd" clip-rule="evenodd" d="M109.064 101C109.064 101 113.901 97.0883 111.154 92.8506C108.397 88.6119 102.998 92.9812 102.998 92.9812" fill="#E9B2D1"/>
<path fill-rule="evenodd" clip-rule="evenodd" d="M94.6017 30C94.6017 30 100.924 29.4985 100.998 24.4764C101.063 19.4522 93.998 20.0192 93.998 20.0192" fill="#F06569"/>
<path fill-rule="evenodd" clip-rule="evenodd" d="M95.5958 41C95.5958 41 101.928 40.5032 101.998 35.476C102.064 30.4556 94.998 31.0189 94.998 31.0189" fill="#F6946A"/>
<path fill-rule="evenodd" clip-rule="evenodd" d="M96.5937 52C96.5937 52 102.93 51.5011 102.998 46.4789C103.064 41.4536 95.998 42.0191 95.998 42.0191" fill="#FFCC66"/>
<path fill-rule="evenodd" clip-rule="evenodd" d="M97.5968 63C97.5968 63 103.928 62.5012 103.998 57.4782C104.067 52.4572 96.998 53.0188 96.998 53.0188" fill="#95D4D0"/>
<path fill-rule="evenodd" clip-rule="evenodd" d="M98.979 80C98.979 80 105.127 79.2562 104.996 74.2327C104.864 69.2102 97.998 70.0533 97.998 70.0533" fill="#8680BC"/>
<mask id="mask0_5415_17668" style="mask-type:alpha" maskUnits="userSpaceOnUse" x="0" y="8" width="131" height="108">
<path fill-rule="evenodd" clip-rule="evenodd" d="M0.998047 8.05078H131.001V115.705H0.998047V8.05078Z" fill="white"/>
</mask>
<g mask="url(#mask0_5415_17668)">
<path fill-rule="evenodd" clip-rule="evenodd" d="M3.07528 17.6414C5.47282 16.0199 9.33553 16.1522 11.9995 20.0789C11.9995 20.0789 22.3845 17.5964 48.0414 18.3805C48.0414 18.3805 47.6344 8.55356 57.0828 8.41115C66.5291 8.27033 66.2105 14.5719 66.2105 14.5719L71.6066 14.2034C71.6066 14.2034 76.7304 8.81456 83.4004 8.21315C93.3384 7.31421 93.7508 10.2037 94.6283 15.4963C95.5143 20.7893 96.468 49.6375 99.1879 72.7664C102.05 97.1305 108.967 102.077 116.515 102.694C127.035 103.555 128.15 97.2846 130.108 98.3423C133.982 100.439 124.696 109.962 112.818 113.178C100.465 116.522 77.1497 117.43 65.9074 110.328C52.7907 102.041 50.6281 88.8463 55.607 69.1733C60.839 48.4987 52.9276 51.2114 32.9236 49.7169C19.4579 48.711 16.4754 44.1983 15.7865 39.0609C15.7865 39.0609 24.9856 40.6375 35.7527 40.1965C44.3753 39.8434 55.9469 38.432 57.597 34.9024C57.597 34.9024 52.9793 38.6967 29.8457 38.1011C16.177 37.7485 6.98221 36.6669 2.95327 29.0026C-0.202958 23.0002 0.927083 19.0942 3.07528 17.6414Z" fill="#F7E74D"/>
</g>
<path fill-rule="evenodd" clip-rule="evenodd" d="M58.998 63.1575C58.998 63.1575 44.8588 57.7145 44.5906 57.6014C44.3526 57.5013 43.9648 54.1215 43.7548 53.6577C43.2935 52.6393 42.5159 51.7227 41.476 51.2734C40.436 50.8236 39.123 50.9144 38.2714 51.6531C37.0997 52.6715 37.0489 54.522 37.1716 55.9398C36.2379 55.8703 35.3223 55.283 34.3653 55.1103C33.3428 54.9256 32.2293 55.0138 31.357 55.5689C29.9404 56.4689 29.5537 58.6048 30.5672 59.9287C31.749 61.4726 33.9702 61.7511 35.7798 61.9472C34.8372 62.6108 33.8998 63.8537 33.9485 65.0563C33.9929 66.1597 34.9181 67.1086 35.9994 67.4162C37.0801 67.7238 38.264 67.4774 39.2637 66.97C40.7237 66.2303 42.0732 64.9868 43.1772 63.8003L58.2516 74" fill="#F7E74D"/>
<path fill-rule="evenodd" clip-rule="evenodd" d="M94.0225 58.481C94.0225 58.481 108.952 50.9292 108.959 50.9251C109.183 50.789 109.141 48.082 109.183 47.7625C109.406 46.0548 109.74 44.2277 110.551 42.693C111.126 41.6036 112.024 40.6392 113.178 40.2133C114.333 39.7874 115.756 39.9918 116.597 40.8936C117.97 42.3688 117.294 44.3517 117.132 46.0735C118.077 45.7722 118.911 45.1144 119.9 44.8334C120.939 44.5378 122.108 44.5389 123.045 45.0763C123.683 45.4417 124.172 46.0308 124.513 46.6824C124.835 47.298 125.037 47.9918 124.992 48.6857C124.925 49.6896 124.344 50.6029 123.601 51.2795C122.558 52.2283 121.305 52.7422 120.093 53.3985C120.666 54.672 121.657 55.4889 121.546 57.0897C121.452 58.457 120.581 59.7654 119.319 60.2956C118.136 60.7929 116.753 60.5911 115.589 60.0495C114.296 59.4474 113.186 58.4706 112.128 57.5302C106.241 62.1424 100.087 66.4795 94.0756 70.9421C94.0501 70.9614 94.0241 70.9807 93.998 71" fill="#F7E74D"/>
<path fill-rule="evenodd" clip-rule="evenodd" d="M71.7545 112C72.4507 114.593 73.0668 117.344 72.8283 120.045C72.7917 120.452 72.7289 120.882 72.4732 121.197C72.2645 121.455 71.9533 121.6 71.6442 121.711C69.9014 122.336 67.9537 122.03 66.1942 122.763C65.644 122.992 65.0566 123.385 65.0033 123.989C64.8568 125.65 67.8381 125.883 68.8653 125.686C68.8653 125.686 65.3845 126.875 66.4526 128.96C67.0734 130.171 69.7027 130.003 70.766 129.978C72.9198 129.927 75.2175 129.497 77.2343 128.709C78.4179 128.247 79.555 127.379 79.884 126.129C80.0242 125.598 80.0074 125.038 79.9776 124.488C79.747 120.282 78.5529 116.203 78.2898 112" fill="#F7E74D"/>
<mask id="mask1_5415_17668" style="mask-type:alpha" maskUnits="userSpaceOnUse" x="86" y="112" width="16" height="20">
<path fill-rule="evenodd" clip-rule="evenodd" d="M86.2012 112.504H101.585V131.998H86.2012V112.504Z" fill="white"/>
</mask>
<g mask="url(#mask1_5415_17668)">
<path fill-rule="evenodd" clip-rule="evenodd" d="M92.989 112.504C93.6723 115.114 94.5503 118.315 94.1621 121.03C94.0754 121.636 93.8163 122.241 93.3441 122.604C93.0643 122.819 92.7278 122.938 92.3913 123.028C90.9632 123.413 89.4535 123.343 88.0197 123.702C87.2863 123.886 86.4951 124.269 86.2623 125.019C86.0723 125.633 86.3433 126.337 86.8243 126.739C87.6594 127.436 89.0034 127.289 89.9861 127.095C89.9861 127.095 86.6778 128.682 87.4783 130.586C88.1358 132.15 90.9363 132.027 92.2272 131.97C94.6009 131.866 97.0912 131.276 99.213 130.129C100.183 129.606 101.076 128.793 101.409 127.703C101.588 127.114 101.593 126.483 101.581 125.865C101.493 121.312 100.055 117.015 99.7751 112.504" fill="#F7E74D"/>
</g>
<path fill-rule="evenodd" clip-rule="evenodd" d="M68.998 13C68.998 20.1811 63.1788 26 55.9978 26C48.8178 26 42.998 20.1811 42.998 13C42.998 5.81894 48.8178 0 55.9978 0C63.1788 0 68.998 5.81894 68.998 13Z" fill="#F7E74D"/>
<path fill-rule="evenodd" clip-rule="evenodd" d="M94.998 15.0011C94.998 22.1786 89.1734 28 81.9967 28C74.8183 28 68.998 22.1786 68.998 15.0011C68.998 7.82196 74.8183 2 81.9967 2C89.1734 2 94.998 7.82196 94.998 15.0011Z" fill="#F7E74D"/>
<path fill-rule="evenodd" clip-rule="evenodd" d="M45.511 16.0845C43.7265 10.8322 46.7469 5.19487 52.2608 3.49037C57.7764 1.7864 63.6949 4.66581 65.4844 9.91706C67.2706 15.1662 64.2491 20.8051 58.7357 22.5096C53.2212 24.2135 47.3033 21.3347 45.511 16.0845Z" fill="white"/>
<path fill-rule="evenodd" clip-rule="evenodd" d="M70.5129 17.0818C68.6828 11.7028 71.8881 5.92095 77.6512 4.36712C82.8507 2.96475 88.4815 5.69927 90.3484 10.5373C92.4128 15.8948 89.3825 21.7652 83.7331 23.5093C78.2208 25.214 72.3029 22.3344 70.5129 17.0818Z" fill="white"/>
<path fill-rule="evenodd" clip-rule="evenodd" d="M84.2288 20.8995C82.6294 20.479 81.6758 18.8368 82.0981 17.2365C82.5192 15.6329 84.1631 14.6788 85.762 15.0992C87.3625 15.5224 88.3199 17.1663 87.8987 18.7688C87.4749 20.368 85.8326 21.3232 84.2288 20.8995Z" fill="#302E2F"/>
<path fill-rule="evenodd" clip-rule="evenodd" d="M86.371 16.9835C86.1032 16.9129 85.9438 16.6396 86.015 16.3736C86.0856 16.1055 86.359 15.9464 86.6264 16.0166C86.8917 16.0875 87.0522 16.3612 86.9813 16.6279C86.9111 16.8953 86.6373 17.0533 86.371 16.9835Z" fill="white"/>
<path fill-rule="evenodd" clip-rule="evenodd" d="M59.2288 18.8995C57.6294 18.479 56.6758 16.8368 57.0981 15.2365C57.5192 13.6329 59.1626 12.6788 60.7615 13.0992C62.3625 13.5224 63.3199 15.1663 62.8988 16.7688C62.4749 18.368 60.8326 19.3232 59.2288 18.8995Z" fill="#302E2F"/>
<path fill-rule="evenodd" clip-rule="evenodd" d="M62.371 14.9835C62.1032 14.9129 61.9438 14.6399 62.015 14.3735C62.0856 14.1054 62.359 13.9466 62.6264 14.0165C62.892 14.0874 63.0521 14.3611 62.9812 14.6279C62.911 14.8953 62.6373 15.0533 62.371 14.9835Z" fill="white"/>
<path fill-rule="evenodd" clip-rule="evenodd" d="M42.9088 12L41.998 21L44.998 19.4138V17.0099L42.9088 12Z" fill="#F7E74D"/>
<path fill-rule="evenodd" clip-rule="evenodd" d="M7.91654 20.0604C8.22769 21.0352 7.62067 22.2464 6.56145 22.7649C5.50224 23.2841 4.39125 22.9146 4.0796 21.9398C3.76844 20.965 4.37497 19.7538 5.43468 19.2347C6.49389 18.7161 7.60538 19.0856 7.91654 20.0604Z" fill="#B7B149"/>
<path fill-rule="evenodd" clip-rule="evenodd" d="M66.998 9H70.998L68.9983 16L66.998 11.7903V9Z" fill="#F7E74D"/>
</svg>
